<?xml version="1.0" standalone="no"?>
<!DOCTYPE svg PUBLIC "-//W3C//DTD SVG 20010904//EN"
 "http://www.w3.org/TR/2001/REC-SVG-20010904/DTD/svg10.dtd">
<svg version="1.0" xmlns="http://www.w3.org/2000/svg"
 width="16.000000pt" height="16.000000pt" viewBox="0 0 16.000000 16.000000"
 preserveAspectRatio="xMidYMid meet">
<metadata>
Created by potrace 1.11, written by Peter Selinger 2001-2013
</metadata>
<g transform="translate(0.000000,16.000000) scale(0.002286,-0.002286)"
fill="#000000" stroke="none">
<path d="M3387 6124 c-1 -1 -63 -5 -137 -8 -131 -7 -154 -8 -270 -21 -83 -9
-112 -14 -268 -41 -808 -140 -1413 -514 -1522 -940 -126 -493 361 -962 1236
-1189 161 -42 175 -45 319 -69 50 -9 110 -18 135 -21 25 -3 56 -7 70 -10 27
-5 83 -10 225 -22 119 -9 524 -9 650 1 128 10 242 22 296 31 9 2 40 6 70 10
30 3 70 10 89 15 19 5 53 11 75 14 121 15 467 118 645 191 122 51 406 208 440
245 3 3 31 27 63 54 270 227 375 484 307 750 -34 135 -121 269 -255 394 -75
71 -224 178 -305 221 -25 12 -54 29 -65 36 -33 20 -199 93 -298 130 -218 83
-553 163 -792 190 -27 3 -63 8 -80 10 -120 17 -615 40 -628 29z"/>
<path d="M1166 3858 c1 -410 2 -437 23 -511 12 -43 33 -101 47 -129 68 -134
219 -294 383 -407 80 -55 310 -180 356 -193 11 -4 54 -21 95 -38 121 -51 425
-138 570 -164 19 -3 46 -8 60 -11 88 -17 147 -26 355 -50 208 -24 691 -24 880
0 17 2 62 6 100 10 39 3 77 8 85 10 8 3 35 7 60 10 143 18 421 83 599 141 489
160 838 407 988 699 60 116 66 173 67 633 1 228 -2 419 -6 425 -5 7 -8 0 -8
-15 0 -62 -62 -201 -132 -296 -67 -92 -195 -209 -318 -291 -112 -75 -358 -203
-416 -217 -16 -4 -33 -10 -39 -14 -57 -41 -561 -170 -760 -194 -64 -8 -123
-16 -155 -21 -177 -27 -859 -27 -1004 1 -11 2 -42 6 -70 9 -172 19 -530 96
-691 150 -361 120 -635 275 -820 461 -70 71 -80 83 -122 141 -49 69 -111 212
-115 269 -1 13 -5 24 -8 24 -3 0 -5 -195 -4 -432z"/>
<path d="M1169 2828 c0 -7 -1 -202 -1 -433 0 -453 3 -489 56 -608 99 -225 364
-452 709 -608 111 -50 306 -123 392 -145 277 -73 457 -108 665 -129 36 -4 76
-8 90 -11 48 -8 306 -18 445 -17 261 1 502 22 745 64 319 57 569 133 843 258
67 31 238 130 263 152 11 11 24 19 30 19 28 1 221 188 303 295 47 62 106 204
117 282 9 65 11 862 2 876 -5 7 -8 3 -8 -10 0 -32 0 -31 -27 -106 -116 -321
-503 -606 -1063 -781 -102 -31 -322 -86 -405 -100 -16 -2 -55 -9 -85 -15 -66
-12 -106 -18 -185 -26 -33 -4 -67 -8 -75 -10 -73 -18 -647 -27 -825 -12 -104
9 -179 16 -215 22 -14 2 -50 7 -80 10 -30 4 -122 20 -205 37 -82 16 -160 32
-172 34 -12 2 -76 20 -143 39 -615 179 -1028 478 -1145 830 -9 28 -17 62 -17
78 -1 27 -7 38 -9 15z"/>
</g>
</svg>
